<?xml version="1.0" standalone="no"?>
<!DOCTYPE svg PUBLIC "-//W3C//DTD SVG 20010904//EN"
 "http://www.w3.org/TR/2001/REC-SVG-20010904/DTD/svg10.dtd">
<svg version="1.0" xmlns="http://www.w3.org/2000/svg"
 width="410.000000pt" height="410.000000pt" viewBox="0 0 410.000000 410.000000"
 preserveAspectRatio="xMidYMid meet">
<metadata>
Created by potrace 1.11, written by Peter Selinger 2001-2013
</metadata>
<g transform="translate(0.000000,410.000000) scale(0.100000,-0.100000)"
fill="#000000" stroke="none">
<path d="M2060 4081 c-19 -11 -72 -54 -118 -96 l-83 -76 -32 20 c-21 12 -61
21 -115 26 -67 6 -90 12 -125 36 -92 62 -185 42 -280 -61 -66 -71 -85 -77
-138 -38 l-40 29 -34 -18 c-19 -10 -57 -38 -85 -63 -56 -49 -296 -163 -340
-161 -77 3 -312 115 -436 207 -85 64 -90 66 -136 61 -58 -7 -64 -10 -84 -48
-44 -85 44 -428 149 -580 52 -76 133 -124 287 -169 78 -22 244 -56 320 -65 30
-4 57 -8 60 -10 3 -2 34 -6 70 -10 110 -11 132 -14 215 -29 121 -23 224 -39
253 -39 9 0 12 -9 8 -26 -5 -25 -5 -25 6 -3 6 12 15 22 19 22 10 0 -24 -92
-106 -285 -90 -213 -115 -282 -126 -349 -6 -32 -22 -91 -36 -130 -14 -39 -47
-134 -73 -211 -37 -107 -52 -139 -64 -137 -10 2 -14 -2 -10 -13 3 -8 10 -12
15 -10 4 3 1 -14 -8 -39 -10 -25 -19 -43 -21 -41 -3 2 1 18 8 35 8 19 9 35 4
40 -6 6 -10 2 -11 -9 -1 -11 -20 -66 -43 -123 -23 -57 -82 -211 -131 -343
-156 -418 -328 -806 -439 -991 -29 -47 -77 -112 -107 -144 -30 -33 -51 -61
-47 -61 29 -5 62 -7 169 -13 66 -4 134 -8 151 -10 29 -2 34 3 62 54 17 30 39
64 50 76 11 11 27 34 35 50 16 29 16 29 16 4 1 -14 -5 -51 -13 -83 -7 -31 -10
-59 -6 -62 4 -3 32 -7 61 -11 30 -3 57 -8 61 -10 4 -3 20 -1 35 3 27 7 27 7
-17 19 l-45 13 62 -6 c62 -5 63 -5 74 23 6 16 16 36 23 44 8 8 28 52 46 98 18
45 34 82 36 82 4 0 -9 -112 -26 -215 -17 -105 -21 -99 80 -136 82 -30 110 -49
78 -49 -7 0 -5 -5 5 -11 10 -6 25 -8 33 -5 8 3 12 2 9 -3 -6 -11 33 -26 42
-17 4 3 11 2 18 -4 8 -6 17 7 30 46 29 86 40 77 19 -15 l-5 -23 118 5 c69 3
99 2 73 -2 -30 -5 -37 -9 -20 -10 53 -5 153 1 215 13 51 10 67 32 78 111 11
71 20 110 29 116 5 3 10 14 13 25 2 10 9 39 15 64 6 25 9 56 7 70 -3 14 3 72
14 130 11 58 22 119 24 135 3 17 7 41 10 55 2 14 7 48 10 75 23 194 42 297 69
372 26 73 56 231 61 319 3 48 7 90 10 94 2 4 7 32 11 61 3 30 8 56 10 58 3 3
19 -9 37 -26 62 -58 92 -68 202 -67 164 1 216 11 271 53 27 20 63 57 79 83 17
25 40 49 52 52 24 7 73 54 73 71 0 5 14 37 30 70 35 70 37 102 10 154 -24 48
-57 75 -118 96 -26 9 -56 22 -67 28 -11 5 -30 11 -41 13 -29 3 -174 105 -201
142 -12 16 -25 51 -29 77 -6 46 -6 48 15 42 11 -3 19 -1 16 3 -3 5 34 29 82
53 121 61 297 163 300 174 2 6 -2 10 -9 10 -22 0 -132 13 -158 18 -14 3 -38 8
-55 10 -39 7 -128 36 -138 44 -6 6 165 174 260 254 21 17 58 54 82 80 24 26
63 56 85 66 39 18 40 19 14 21 -16 2 -31 3 -35 4 -90 21 -285 28 -368 14 -27
-5 -67 -15 -88 -24 -34 -13 -39 -13 -57 4 -18 17 -18 21 -5 66 46 152 55 399
20 566 -20 100 -61 195 -91 215 -39 26 -103 28 -144 6z m-643 -1143 c-3 -8 -6
-5 -6 6 -1 11 2 17 5 13 3 -3 4 -12 1 -19z m-18 -57 c-6 -18 -13 -30 -15 -28
-2 2 1 18 7 36 6 18 13 30 15 28 2 -2 -1 -18 -7 -36z m-67 -182 c-27 -74 -66
-185 -87 -247 -21 -62 -40 -111 -42 -109 -3 4 106 333 147 440 12 32 24 56 26
54 3 -2 -17 -64 -44 -138z m-148 -428 c-10 -28 -19 -49 -22 -47 -2 3 4 28 13
56 9 28 19 49 21 47 2 -2 -3 -27 -12 -56z m-33 -88 c-12 -20 -14 -14 -5 12 4
9 9 14 11 11 3 -2 0 -13 -6 -23z m-37 -107 c-15 -42 -28 -75 -31 -73 -2 2 9
38 24 80 14 42 28 75 30 73 3 -2 -8 -38 -23 -80z m-79 -216 c-24 -63 -44 -110
-45 -105 0 16 84 239 87 229 1 -5 -17 -61 -42 -124z m530 -1830 c-3 -5 -14
-10 -23 -9 -14 0 -13 2 3 9 27 11 27 11 20 0z"/>
<path d="M3680 3508 c-18 -18 -30 -27 -26 -19 6 8 0 7 -18 -4 -30 -20 -33 -27
-8 -18 14 5 14 3 -3 -10 -10 -8 -25 -13 -31 -10 -7 2 -15 -1 -20 -8 -4 -8 -3
-10 4 -5 7 4 12 5 12 2 0 -6 -83 -50 -88 -47 -1 1 -10 -5 -18 -14 -9 -8 -21
-12 -27 -8 -7 3 -9 3 -5 -2 9 -9 -15 -24 -245 -160 -118 -69 -166 -102 -162
-112 3 -8 5 -16 5 -17 0 -6 124 40 157 57 17 9 37 23 45 30 21 21 117 63 151
66 5 1 5 5 2 11 -3 5 0 7 9 4 8 -3 23 3 34 13 10 10 25 19 32 21 7 2 40 16 73
33 32 16 65 29 72 29 19 0 75 70 76 97 1 12 3 28 4 33 1 6 3 18 4 28 1 15 3
15 11 2 8 -12 10 -9 10 13 0 35 -9 34 -50 -5z m-36 -143 c-28 -22 -40 -18 -13
4 13 11 26 17 28 15 3 -2 -4 -11 -15 -19z"/>
<path d="M3845 3220 c-4 -6 -10 -8 -15 -5 -4 3 -19 0 -32 -5 l-23 -11 24 5
c35 7 12 -11 -24 -19 -24 -5 -27 -4 -15 5 13 10 12 11 -3 6 -10 -3 -24 -6 -30
-6 -8 0 -7 -4 2 -9 9 -6 0 -11 -30 -16 -24 -4 -52 -12 -63 -17 -13 -7 -16 -7
-12 1 10 15 0 14 -27 -3 -12 -7 -62 -23 -112 -36 -108 -26 -88 -21 -260 -65
-77 -20 -151 -38 -164 -41 -35 -7 -41 -13 -41 -35 0 -18 5 -20 43 -15 23 3 74
8 112 12 39 3 75 9 80 14 14 11 62 20 126 25 30 2 56 4 59 5 3 1 16 2 30 1 20
-2 22 0 10 8 -9 7 -10 11 -3 11 6 0 14 -4 17 -9 3 -5 15 -7 26 -4 11 3 17 9
14 14 -3 5 11 7 30 3 20 -3 36 -1 36 3 0 5 15 9 33 9 53 0 161 16 177 25 10 6
1 8 -25 4 -32 -4 -35 -3 -17 5 12 5 37 10 55 10 60 0 65 3 69 32 3 15 1 28 -3
28 -5 0 -6 7 -3 15 15 38 -22 86 -41 55z"/>
<path d="M1361 2933 c-1 -6 -4 -20 -7 -30 -5 -17 -5 -17 6 0 6 10 9 23 6 30
-3 9 -5 9 -5 0z"/>
<path d="M1336 2863 c-6 -14 -5 -15 5 -6 7 7 10 15 7 18 -3 3 -9 -2 -12 -12z"/>
<path d="M3089 2838 c-13 -24 -13 -25 36 -31 22 -3 53 -10 68 -16 15 -6 55
-13 89 -16 35 -3 91 -8 126 -11 34 -3 62 -9 62 -13 0 -5 11 -6 25 -3 14 2 31
-1 39 -7 16 -13 54 -16 81 -6 16 5 17 5 5 -4 -12 -9 -8 -11 20 -10 35 0 63 -3
130 -17 19 -4 44 -8 55 -10 19 -2 76 -11 117 -19 10 -2 16 0 13 6 -4 5 -18 9
-33 9 -19 0 -23 3 -13 9 8 5 27 3 47 -5 43 -18 64 -18 64 1 0 9 6 18 14 21 8
3 12 12 10 19 -3 7 0 16 7 21 8 4 10 3 5 -4 -4 -7 -5 -12 -3 -12 3 0 14 18 25
39 20 38 20 39 1 44 -10 3 -19 2 -19 -2 0 -12 -43 -11 -59 2 -12 9 -13 9 -7 0
4 -8 2 -13 -6 -14 -7 -1 -20 -2 -28 -3 -8 -1 -24 5 -34 14 -12 9 -17 10 -12 2
6 -10 -8 -12 -63 -10 -38 1 -68 5 -66 8 2 3 -45 6 -103 6 -100 1 -163 4 -382
19 -204 14 -200 14 -211 -7z"/>
<path d="M3946 2821 c-4 -5 3 -7 14 -4 23 6 26 13 6 13 -8 0 -17 -4 -20 -9z"/>
<path d="M2357 2449 c7 -7 15 -10 18 -7 3 3 -2 9 -12 12 -14 6 -15 5 -6 -5z"/>
<path d="M2375 2401 c-3 -5 -1 -12 5 -16 5 -3 10 1 10 9 0 18 -6 21 -15 7z"/>
<path d="M1045 2059 c-4 -6 -5 -12 -2 -15 2 -3 7 2 10 11 7 17 1 20 -8 4z"/>
<path d="M1017 1978 c-9 -29 -15 -54 -13 -56 2 -2 12 20 21 48 9 28 15 53 13
55 -2 3 -12 -19 -21 -47z"/>
</g>
</svg>
