<?xml version="1.0" standalone="no"?>
<!DOCTYPE svg PUBLIC "-//W3C//DTD SVG 20010904//EN"
 "http://www.w3.org/TR/2001/REC-SVG-20010904/DTD/svg10.dtd">
<svg version="1.0" xmlns="http://www.w3.org/2000/svg"
 width="1488.000000pt" height="1488.000000pt" viewBox="0 0 1488.000000 1488.000000"
 preserveAspectRatio="xMidYMid meet">
<metadata>
Created by potrace 1.11, written by Peter Selinger 2001-2013
</metadata>
<g transform="translate(0.000000,1488.000000) scale(0.100000,-0.100000)"
fill="#000000" stroke="none">
<path d="M8140 14804 c-19 -2 -91 -9 -159 -15 -533 -46 -1166 -296 -1699 -671
-263 -184 -443 -338 -692 -587 -447 -449 -786 -929 -1084 -1536 -320 -650
-588 -1302 -764 -1860 -57 -179 -122 -424 -122 -459 0 -18 18 -33 93 -74 464
-257 924 -359 1357 -301 158 21 424 119 525 193 127 94 157 119 238 201 340
343 613 937 771 1675 3 14 3 -47 1 -135 -9 -328 -77 -760 -150 -965 -91 -250
-275 -526 -527 -786 -61 -63 -109 -116 -107 -119 3 -2 59 -32 124 -66 66 -33
125 -64 130 -67 6 -4 15 -7 21 -8 6 -1 65 -22 130 -47 289 -109 621 -186 969
-224 230 -25 775 -25 1010 0 417 45 837 136 1205 262 91 31 172 58 180 60 22
5 88 32 135 55 22 10 108 51 192 90 709 330 1254 816 1561 1390 211 396 312
863 282 1310 -35 521 -185 997 -429 1361 -349 519 -872 870 -1641 1102 -263
80 -770 178 -1068 207 -111 11 -429 20 -482 14z m3050 -1716 c64 -41 95 -72
85 -87 -3 -6 2 -11 13 -11 41 0 160 -209 205 -360 50 -168 52 -187 51 -395 -1
-169 -5 -224 -28 -357 -29 -168 -91 -427 -107 -442 -5 -6 -9 -18 -9 -28 0 -28
-64 -195 -130 -340 -211 -464 -556 -860 -970 -1114 -431 -264 -982 -476 -1700
-654 -244 -61 -539 -125 -545 -118 -2 1 53 84 122 183 620 886 1082 1537 1636
2303 86 120 120 159 74 85 -381 -604 -481 -760 -493 -769 -16 -13 -19 -28 -4
-19 6 3 7 -1 4 -9 -3 -9 -10 -14 -14 -11 -5 3 -12 0 -16 -6 -4 -7 -3 -9 4 -5
5 3 12 1 14 -6 6 -18 26 0 49 44 15 30 23 37 29 28 7 -11 16 -7 45 14 41 31
41 42 1 27 -29 -12 -33 -3 -14 32 16 30 67 77 81 74 6 -1 14 13 17 32 5 33 14
42 55 56 13 5 15 9 8 12 -19 7 -16 19 20 72 18 26 39 62 46 79 8 18 20 32 27
32 8 0 15 6 15 13 1 6 3 27 5 46 2 27 14 46 56 85 29 27 57 50 63 50 5 1 19
29 31 64 12 34 29 71 38 81 10 11 13 22 8 25 -12 7 -2 66 17 96 35 56 547 745
583 785 5 5 8 -10 7 -36 -2 -37 6 -59 41 -120 89 -152 257 -269 399 -277 56
-3 71 0 100 20 42 29 83 106 107 206 15 60 19 114 19 242 0 146 -3 172 -22
224 -39 104 -75 127 -210 134 -51 3 -93 8 -93 12 0 4 19 18 43 30 34 17 55 21
112 17 60 -3 79 -9 125 -39z m-2625 7 c110 -23 227 -86 304 -164 183 -183 222
-447 100 -688 -71 -141 -184 -248 -342 -324 -93 -44 -217 -75 -217 -54 0 7 14
18 30 25 17 7 30 18 30 26 0 7 21 25 46 40 34 20 44 32 41 45 -3 11 -1 22 4
25 5 3 9 13 9 22 0 9 7 30 15 46 13 24 13 31 3 38 -7 4 -8 8 -3 8 6 0 -3 9
-20 20 -21 14 -25 20 -12 20 9 0 17 7 17 16 0 14 3 14 15 4 28 -23 29 0 2 28
-15 16 -27 36 -27 45 0 11 -8 17 -24 17 -27 0 -41 27 -32 58 3 10 -1 43 -9 75
-25 98 -89 179 -175 223 -50 26 -65 29 -155 29 -86 0 -107 -3 -147 -24 -157
-80 -228 -261 -167 -426 30 -81 112 -164 192 -194 109 -40 249 -20 329 47 l32
27 -7 -25 c-3 -14 -19 -71 -34 -127 l-27 -103 -51 0 c-82 0 -185 27 -273 71
-274 134 -391 449 -275 737 127 319 487 508 828 437z"/>
<path d="M11280 12870 c-12 -8 -11 -10 8 -10 12 0 22 5 22 10 0 13 -11 13 -30
0z"/>
<path d="M11256 12311 c-4 -29 -2 -48 7 -61 13 -18 14 -17 15 19 1 22 -2 50
-7 62 -7 20 -9 17 -15 -20z"/>
<path d="M11490 12253 c0 -12 5 -25 10 -28 13 -8 13 15 0 35 -8 12 -10 11 -10
-7z"/>
<path d="M11040 12187 c0 -2 51 -102 113 -222 109 -212 145 -261 140 -191 -1
16 2 37 8 47 6 12 6 19 0 19 -10 0 -8 27 4 73 4 15 3 27 -1 27 -10 0 -37 80
-30 87 10 11 -19 30 -38 25 -15 -4 -18 -1 -13 11 3 9 1 18 -6 21 -7 2 2 5 18
6 28 1 28 2 11 13 -11 7 -31 23 -44 35 -18 17 -37 24 -69 25 -24 0 -39 3 -33
7 8 5 6 9 -5 14 -17 6 -55 8 -55 3z"/>
<path d="M11500 12109 c0 -5 5 -7 10 -4 6 3 10 8 10 11 0 2 -4 4 -10 4 -5 0
-10 -5 -10 -11z"/>
<path d="M10925 11470 c-3 -5 -1 -10 4 -10 6 0 11 5 11 10 0 6 -2 10 -4 10 -3
0 -8 -4 -11 -10z"/>
<path d="M9736 11142 c-7 -12 22 -38 31 -28 4 3 0 14 -9 22 -9 10 -18 12 -22
6z"/>
<path d="M10010 11001 c0 -12 5 -21 10 -21 6 0 10 6 10 14 0 8 -4 18 -10 21
-5 3 -10 -3 -10 -14z"/>
<path d="M9321 10860 c-12 -22 -18 -40 -13 -40 4 0 18 18 31 40 12 22 18 40
13 40 -4 0 -18 -18 -31 -40z"/>
<path d="M9277 10793 c-4 -3 -7 -11 -7 -17 0 -6 5 -5 12 2 6 6 9 14 7 17 -3 3
-9 2 -12 -2z"/>
<path d="M9230 10728 c-12 -22 -12 -22 6 -6 10 10 15 20 12 24 -4 3 -12 -5
-18 -18z"/>
<path d="M9165 10613 c-27 -43 -55 -88 -64 -101 -13 -22 -13 -23 5 -20 23 4
83 94 84 126 0 12 6 22 14 22 13 0 26 20 26 41 0 24 -21 2 -65 -68z"/>
<path d="M9107 10466 c-4 -10 -5 -21 -2 -24 9 -9 17 6 13 25 -3 17 -4 17 -11
-1z"/>
<path d="M9045 10360 c-3 -5 -1 -10 4 -10 6 0 11 5 11 10 0 6 -2 10 -4 10 -3
0 -8 -4 -11 -10z"/>
<path d="M8610 12960 c-14 -14 -11 -16 39 -13 37 2 63 -3 79 -13 13 -8 29 -13
35 -11 15 5 -44 31 -98 43 -32 8 -43 6 -55 -6z"/>
<path d="M8920 12331 c0 -10 30 -24 37 -17 3 2 -5 9 -16 16 -12 6 -21 7 -21 1z"/>
<path d="M8830 12200 c0 -5 5 -10 11 -10 5 0 7 5 4 10 -3 6 -8 10 -11 10 -2 0
-4 -4 -4 -10z"/>
<path d="M4610 12470 c-6 -11 -7 -20 -2 -20 6 0 12 9 15 20 3 11 3 20 1 20 -2
0 -8 -9 -14 -20z"/>
<path d="M4232 11775 c-7 -15 -11 -30 -8 -32 7 -7 28 36 24 49 -2 6 -9 -2 -16
-17z"/>
<path d="M4132 11548 c-7 -7 -12 -25 -12 -40 0 -15 -27 -97 -60 -181 -34 -83
-64 -172 -67 -197 -3 -25 -14 -54 -24 -65 -25 -28 -35 -60 -44 -138 -5 -48
-18 -90 -45 -145 -21 -42 -46 -102 -55 -132 -10 -30 -21 -59 -25 -65 -22 -30
-85 -272 -66 -254 3 3 21 48 40 100 19 52 91 249 161 439 146 399 215 590 215
598 0 3 -7 -3 -15 -14 -18 -24 -19 -9 0 51 16 53 15 61 -3 43z"/>
<path d="M3865 10850 c-3 -5 -2 -10 4 -10 5 0 13 5 16 10 3 6 2 10 -4 10 -5 0
-13 -4 -16 -10z"/>
<path d="M6391 10428 c-4 -13 -11 -48 -13 -77 l-5 -55 17 35 c23 44 36 119 21
119 -6 0 -15 -10 -20 -22z"/>
<path d="M3676 10268 c-8 -13 -24 -66 -36 -118 -21 -90 -47 -162 -35 -95 l6
30 -18 -24 c-10 -14 -33 -63 -50 -109 -32 -82 -43 -126 -21 -87 52 97 61 109
68 91 4 -12 15 8 35 66 15 45 39 103 52 128 25 48 30 75 12 64 -7 -4 -9 1 -5
15 3 11 9 30 12 41 7 27 -2 25 -20 -2z"/>
<path d="M3710 10275 c0 -8 2 -15 4 -15 2 0 6 7 10 15 3 8 1 15 -4 15 -6 0
-10 -7 -10 -15z"/>
<path d="M3476 9653 c-9 -25 -14 -49 -11 -51 5 -5 18 27 29 71 10 43 -1 31
-18 -20z"/>
<path d="M7730 8880 c-33 -7 -32 -7 17 -9 28 0 55 4 58 9 7 11 -22 11 -75 0z"/>
<path d="M7890 8524 c-499 -26 -872 -82 -1290 -194 -594 -158 -1190 -438
-1650 -774 -609 -446 -1054 -1000 -1332 -1661 -84 -199 -189 -551 -223 -751
-8 -46 -22 -122 -30 -168 -48 -278 -63 -806 -32 -1153 82 -915 403 -1765 919
-2430 100 -128 397 -433 518 -530 423 -340 901 -545 1421 -609 283 -36 677
-18 957 42 63 13 120 24 128 24 8 0 -24 -48 -71 -107 -47 -60 -85 -111 -85
-115 0 -8 434 102 545 139 102 33 257 100 270 116 6 6 49 32 97 56 47 25 84
49 82 55 -2 6 30 32 71 59 192 122 381 299 604 566 152 182 164 199 132 182
-12 -7 -21 -10 -21 -7 0 2 29 49 65 103 36 54 68 109 72 123 3 14 18 50 33 80
137 275 258 687 289 985 21 202 22 235 10 235 -9 0 -10 26 -7 98 5 77 3 92 -6
71 -6 -14 -47 -72 -91 -129 l-80 -103 -7 170 c-25 661 -243 1216 -640 1629
-542 562 -1309 764 -2253 594 -209 -38 -540 -132 -704 -200 -41 -16 -76 -28
-79 -26 -15 15 243 415 378 586 158 200 414 438 621 577 432 291 916 443 1407
443 378 0 695 -74 1024 -240 212 -106 383 -233 559 -414 273 -280 385 -520
440 -941 18 -136 15 -608 -5 -800 -46 -451 -95 -742 -251 -1500 -160 -783
-169 -835 -168 -1035 0 -237 48 -430 158 -648 123 -241 292 -424 481 -520 66
-34 183 -62 255 -62 124 0 264 60 358 152 59 58 86 103 118 195 43 126 38 268
-21 668 -41 275 -48 343 -49 480 -1 274 37 416 288 1090 356 953 477 1399 534
1970 54 534 -19 1064 -214 1550 -355 885 -1069 1557 -1985 1868 -285 98 -601
165 -896 192 -165 14 -526 25 -644 19z"/>
<path d="M9550 8420 c20 -13 43 -13 35 0 -3 6 -16 10 -28 10 -18 0 -19 -2 -7
-10z"/>
<path d="M5930 8290 c-13 -8 -13 -10 2 -10 9 0 20 5 23 10 8 13 -5 13 -25 0z"/>
<path d="M6170 5768 c-14 -11 -36 -29 -49 -39 -13 -11 -21 -22 -17 -26 4 -4
28 14 54 40 49 49 55 61 12 25z"/>
</g>
</svg>
